<svg width="81" height="81" viewBox="0 0 81 81" fill="none" xmlns="http://www.w3.org/2000/svg">
<path d="M40.5 0.916748C18.6896 0.916748 0.916687 18.6897 0.916687 40.5001C0.916687 62.3105 18.6896 80.0834 40.5 80.0834C62.3104 80.0834 80.0833 62.3105 80.0833 40.5001C80.0833 18.6897 62.3104 0.916748 40.5 0.916748ZM59.4208 31.3959L36.9771 53.8397C36.4229 54.3938 35.6708 54.7105 34.8792 54.7105C34.0875 54.7105 33.3354 54.3938 32.7813 53.8397L21.5792 42.6376C20.4313 41.4897 20.4313 39.5897 21.5792 38.4417C22.7271 37.2938 24.6271 37.2938 25.775 38.4417L34.8792 47.5459L55.225 27.2001C56.3729 26.0522 58.2729 26.0522 59.4208 27.2001C60.5688 28.348 60.5688 30.2084 59.4208 31.3959Z" fill="url(#paint0_linear_52_656)"/>
<defs>
<linearGradient id="paint0_linear_52_656" x1="0.916687" y1="17.1099" x2="187.637" y2="12.1842" gradientUnits="userSpaceOnUse">
<stop stop-color="#0A9EDA"/>
<stop offset="1" stop-color="#5AECDC"/>
</linearGradient>
</defs>
</svg>
